<?xml version="1.0" standalone="no"?>
<!DOCTYPE svg PUBLIC "-//W3C//DTD SVG 20010904//EN"
 "http://www.w3.org/TR/2001/REC-SVG-20010904/DTD/svg10.dtd">
<svg version="1.0" xmlns="http://www.w3.org/2000/svg"
 width="600.000000pt" height="375.000000pt" viewBox="0 0 600.000000 375.000000"
 preserveAspectRatio="xMidYMid meet">
<metadata>
Created by potrace 1.15, written by Peter Selinger 2001-2017
</metadata>
<g transform="translate(0.000000,375.000000) scale(0.100000,-0.100000)"
fill="#000000" stroke="none">
<path d="M360 2250 l0 -1190 133 0 132 0 560 560 560 560 560 -560 560 -560
198 0 197 0 0 722 0 723 93 -93 92 -92 393 0 c215 0 392 3 392 7 0 4 -60 67
-132 140 l-133 133 -622 0 -623 0 0 -297 0 -298 -457 458 -456 459 -459 -459
-458 -458 0 718 0 717 -265 0 -265 0 0 -1190z"/>
<path d="M2720 3315 l0 -125 320 0 c176 0 320 3 320 7 0 4 -53 61 -117 125
l-118 118 -202 0 -203 0 0 -125z"/>
<path d="M5230 3315 l-125 -125 263 0 262 0 0 125 0 125 -138 0 -137 0 -125
-125z"/>
<path d="M2720 2895 l0 -135 535 0 c294 0 535 3 535 8 0 4 -57 65 -128 135
l-127 127 -408 0 -407 0 0 -135z"/>
<path d="M4810 2895 l-135 -135 478 0 477 0 0 135 0 135 -343 0 -342 0 -135
-135z"/>
<path d="M4375 2460 l-140 -140 340 0 340 0 87 87 88 88 0 -88 0 -87 270 0
270 0 0 140 0 140 -558 0 -557 0 -140 -140z"/>
<path d="M3725 2030 l140 -140 310 0 310 0 140 140 140 140 -590 0 -590 0 140
-140z"/>
<path d="M5090 2030 l0 -140 270 0 270 0 0 140 0 140 -270 0 -270 0 0 -140z"/>
<path d="M4090 1665 c41 -41 79 -75 85 -75 6 0 44 34 85 75 l74 75 -159 0
-159 0 74 -75z"/>
<path d="M5090 1600 l0 -140 270 0 270 0 0 140 0 140 -270 0 -270 0 0 -140z"/>
<path d="M5090 1185 l0 -125 270 0 270 0 0 125 0 125 -270 0 -270 0 0 -125z"/>
<path d="M360 915 c0 -13 300 -15 2640 -15 2340 0 2640 2 2640 15 0 13 -300
15 -2640 15 -2340 0 -2640 -2 -2640 -15z"/>
<path d="M1360 748 c0 -26 109 -400 121 -414 15 -19 63 -18 79 1 7 9 23 64 35
123 l22 107 12 -60 c7 -33 17 -81 23 -108 11 -55 30 -77 63 -77 36 0 48 27
102 219 l48 174 3 -196 2 -197 40 0 40 0 0 220 0 221 -82 -3 -83 -3 -36 -128
-35 -128 -13 68 c-32 173 -40 193 -85 193 -37 0 -53 -29 -75 -139 -12 -58 -22
-106 -24 -107 -1 -2 -18 53 -37 122 l-35 124 -42 0 c-28 0 -43 -4 -43 -12z"/>
<path d="M1970 720 l0 -40 40 0 40 0 0 -180 0 -180 45 0 45 0 0 180 0 180 40
0 40 0 0 40 0 40 -125 0 -125 0 0 -40z"/>
<path d="M2240 540 l0 -220 40 0 40 0 1 83 0 82 42 -82 41 -83 43 0 c24 0 43
3 43 8 0 4 -21 53 -47 110 l-47 103 43 92 c62 133 61 127 8 127 l-45 0 -40
-82 -40 -83 -1 83 -1 82 -40 0 -40 0 0 -220z"/>
<path d="M2542 726 l-37 -34 -3 -139 c-3 -131 -2 -140 20 -173 31 -46 63 -62
117 -57 32 4 52 13 75 36 31 31 31 31 36 164 l5 132 43 -155 c24 -85 48 -160
54 -167 14 -18 63 -16 78 2 7 9 23 61 35 118 12 56 25 95 28 87 3 -8 13 -53
22 -100 10 -47 24 -93 33 -102 19 -23 55 -23 74 0 9 9 39 100 67 202 29 102
54 193 57 203 5 16 0 18 -42 15 l-48 -3 -23 -85 c-13 -47 -28 -103 -35 -125
l-11 -40 -23 114 c-13 62 -29 120 -35 127 -18 22 -67 17 -83 -8 -8 -13 -22
-63 -32 -113 -9 -49 -20 -94 -24 -98 -3 -4 -22 47 -40 113 l-33 120 -44 0 -45
0 7 -32 c5 -28 4 -31 -7 -18 -27 33 -64 50 -105 50 -35 0 -50 -6 -81 -34z
m118 -75 c5 -11 10 -62 10 -113 0 -105 -11 -132 -51 -126 -24 3 -24 5 -27 117
-1 63 0 121 2 128 8 20 54 16 66 -6z"/>
<path d="M3278 720 c-39 -39 -40 -42 -36 -97 4 -49 9 -60 41 -90 24 -22 47
-33 66 -33 60 0 76 -81 17 -88 -20 -3 -28 2 -36 22 -8 22 -16 26 -50 26 -35 0
-40 -3 -40 -24 0 -30 39 -87 70 -104 15 -7 44 -11 70 -8 35 3 51 11 77 40 28
30 33 43 33 83 0 70 -46 132 -98 133 -51 0 -73 30 -56 74 10 26 53 20 64 -9 8
-21 16 -25 51 -25 l42 0 -6 38 c-4 25 -18 48 -42 70 -29 26 -43 32 -81 32 -41
0 -51 -5 -86 -40z"/>
<path d="M3530 540 l0 -220 45 0 45 0 0 78 1 77 40 -77 39 -78 45 0 c25 0 45
2 45 5 0 3 -22 53 -49 110 l-50 105 42 90 42 90 48 -95 47 -95 0 -105 0 -105
45 0 45 0 0 105 0 105 55 110 c30 60 55 112 55 115 0 3 -22 5 -48 5 l-48 0
-28 -57 -28 -58 -29 58 -29 57 -80 0 -80 0 -39 -77 -40 -78 -1 78 0 77 -45 0
-45 0 0 -220z"/>
<path d="M4272 748 c-9 -9 -12 -72 -12 -220 l0 -208 40 0 40 0 1 93 0 92 28
-77 c32 -90 45 -108 76 -108 29 0 38 12 69 90 l25 65 0 -77 1 -78 45 0 45 0 0
201 c0 119 -4 208 -10 220 -11 19 -45 25 -68 11 -7 -5 -34 -68 -60 -140 l-48
-132 -44 123 c-24 67 -50 130 -58 140 -17 20 -53 22 -70 5z"/>
<path d="M4687 742 c-15 -16 -17 -45 -17 -204 0 -228 -6 -218 133 -218 l97 0
0 45 0 45 -70 0 -70 0 0 45 0 45 45 0 45 0 0 40 0 40 -45 0 -45 0 0 50 0 50
70 0 70 0 0 40 0 40 -98 0 c-83 0 -102 -3 -115 -18z"/>
<path d="M4940 540 l0 -220 83 0 c64 0 88 4 111 19 49 33 55 54 56 199 0 195
-20 222 -170 222 l-80 0 0 -220z m148 124 c20 -14 22 -23 22 -123 0 -116 -6
-131 -52 -131 l-28 0 0 135 c0 123 2 135 18 135 10 0 28 -7 40 -16z"/>
<path d="M5240 540 l0 -221 82 3 82 3 12 40 c11 39 12 40 61 43 l50 3 12 -46
11 -45 45 0 c25 0 45 2 45 5 0 16 -110 397 -120 414 -13 26 -62 28 -81 5 -8
-9 -37 -98 -66 -198 l-51 -181 -1 198 -1 197 -40 0 -40 0 0 -220z"/>
</g>
</svg>
